<svg height="512" width="512" xmlns="http://www.w3.org/2000/svg"><path d="M-.048 454.893l35.04-35.04 57.056 57.056-35.04 35.04zM132.43 322.506l-76.172 76.172 57.064 57.064 76.172-76.172a226.56 226.56 0 01-57.064-57.064zM317.242 79.561c-63.52 0-115.196 51.678-115.196 115.197s51.677 115.196 115.196 115.196 115.197-51.677 115.197-115.196S380.762 79.561 317.242 79.561zm0 178.617c-34.97 0-63.42-28.45-63.42-63.42 0-34.971 28.45-63.421 63.42-63.421 34.971 0 63.421 28.45 63.421 63.421 0 34.97-28.45 63.42-63.421 63.42z"/><path d="M317.243 0C209.854 0 122.485 87.368 122.485 194.757c0 107.39 87.368 194.758 194.757 194.758 107.39 0 194.757-87.368 194.757-194.758C512 87.368 424.632 0 317.243 0zm-.001 339.954c-80.062 0-145.196-65.135-145.196-145.196 0-80.063 65.135-145.197 145.196-145.197 80.063 0 145.197 65.135 145.197 145.197 0 80.061-65.134 145.196-145.197 145.196z"/><path d="M317.242 161.337c-18.428 0-33.42 14.992-33.42 33.421 0 18.428 14.992 33.42 33.42 33.42 18.429 0 33.421-14.992 33.421-33.42 0-18.429-14.992-33.421-33.421-33.421z"/></svg>